<svg width="141" height="30" viewBox="0 0 141 30" fill="none" xmlns="http://www.w3.org/2000/svg">
<g clip-path="url(#clip0_73_17)">
<path d="M29.1666 20.3502C29.1666 20.8607 28.7457 21.2788 28.2313 21.2788H8.43519C7.9208 21.2788 7.49988 20.8607 7.49988 20.3502V0.928597C7.49988 0.41812 7.9208 0 8.43519 0H28.2318C28.7462 0 29.1671 0.41812 29.1671 0.928597V20.3502H29.1666Z" fill="#0C9D58"/>
<path opacity="0.2" d="M29.1666 4.99287L21.7473 4.03796L29.1666 6.02837V4.99287Z" fill="#004D40"/>
<path opacity="0.2" d="M18.6912 1.01258L7.45569 6.02947L19.8734 1.50963V1.49731C19.6551 1.02938 19.1233 0.81108 18.6912 1.01258Z" fill="#004D40"/>
<path opacity="0.2" d="M28.2318 0H8.43519C7.9208 0 7.49988 0.41812 7.49988 0.928597V1.13682C7.49988 0.626341 7.9208 0.208221 8.43519 0.208221H28.2318C28.7462 0.208221 29.1671 0.626341 29.1671 1.13682V0.928597C29.1666 0.41812 28.7462 0 28.2318 0Z" fill="white"/>
<path d="M12.3041 19.7536C12.1703 20.2523 12.4373 20.7611 12.8974 20.8842L31.2331 25.8155C31.6932 25.9386 32.179 25.6313 32.3123 25.1326L36.6317 9.01229C36.7655 8.51357 36.4985 8.00477 36.0384 7.88163L17.7027 2.95038C17.2426 2.82724 16.7567 3.13454 16.6235 3.63326L12.3041 19.7536Z" fill="#EA4335"/>
<path opacity="0.2" d="M32.5004 14.7664L33.4648 20.6251L32.5004 24.2258V14.7664Z" fill="#3E2723"/>
<path opacity="0.2" d="M21.8341 4.27698L22.6983 4.50927L23.2346 8.12514L21.8341 4.27698Z" fill="#3E2723"/>
<path opacity="0.2" d="M36.039 7.88163L17.7033 2.95038C17.2432 2.82724 16.7573 3.13454 16.6241 3.63326L12.3046 19.7536C12.2974 19.7804 12.2957 19.8079 12.2906 19.8347L16.5776 3.83644C16.7114 3.33772 17.1973 3.03043 17.6568 3.15357L35.9925 8.08481C36.4274 8.20124 36.6855 8.66302 36.5998 9.13487L36.6329 9.01229C36.7661 8.51357 36.4991 8.00477 36.039 7.88163Z" fill="white"/>
<path d="M26.7446 17.7681C26.9209 18.2534 26.6992 18.7835 26.252 18.9464L6.90371 25.9884C6.45592 26.1512 5.94545 25.8876 5.76913 25.4023L0.0609756 9.71972C-0.11534 9.23443 0.106314 8.70436 0.553541 8.54148L19.9018 1.49948C20.3496 1.3366 20.8601 1.60023 21.0364 2.08552L26.7446 17.7681Z" fill="#FFC107"/>
<path opacity="0.2" d="M0.134357 9.91737C-0.0419588 9.43208 0.179695 8.90202 0.626922 8.73914L19.9752 1.69658C20.418 1.53538 20.9212 1.79229 21.1031 2.26751L21.0365 2.08503C20.8596 1.59974 20.3491 1.33611 19.9019 1.49899L0.553597 8.54155C0.105811 8.70443 -0.115844 9.2345 0.061032 9.71979L5.76919 25.4024C5.77087 25.4074 5.77422 25.4119 5.77646 25.4175L0.134357 9.91737Z" fill="white"/>
<path d="M32.5003 29.0625C32.5003 29.578 32.0783 30 31.5627 30H5.10418C4.58866 30 4.16663 29.578 4.16663 29.0625V9.06267C4.16663 8.54716 4.58866 8.12512 5.10418 8.12512H31.5627C32.0783 8.12512 32.5003 8.54716 32.5003 9.06267V29.0625Z" fill="#4285F4"/>
<path d="M27.4482 16.0419H19.5314V13.9586H27.4482C27.6783 13.9586 27.8647 14.145 27.8647 14.3751V15.6249C27.8647 15.855 27.6783 16.0419 27.4482 16.0419ZM27.4482 23.9582H19.5314V21.8749H27.4482C27.6783 21.8749 27.8647 22.0613 27.8647 22.2914V23.5412C27.8647 23.7719 27.6783 23.9582 27.4482 23.9582ZM28.6981 19.9998H19.5314V17.9165H28.6981C28.9282 17.9165 29.1146 18.1029 29.1146 18.3329V19.5828C29.1146 19.8134 28.9282 19.9998 28.6981 19.9998Z" fill="white"/>
<path opacity="0.2" d="M31.5627 29.7918H5.10418C4.58866 29.7918 4.16663 29.3698 4.16663 28.8542V29.0625C4.16663 29.578 4.58866 30 5.10418 30H31.5627C32.0783 30 32.5003 29.578 32.5003 29.0625V28.8542C32.5003 29.3698 32.0783 29.7918 31.5627 29.7918Z" fill="#1A237E"/>
<path opacity="0.2" d="M5.10418 8.33334H31.5627C32.0783 8.33334 32.5003 8.75538 32.5003 9.2709V9.06267C32.5003 8.54716 32.0783 8.12512 31.5627 8.12512H5.10418C4.58866 8.12512 4.16663 8.54716 4.16663 9.06267V9.2709C4.16663 8.75538 4.58866 8.33334 5.10418 8.33334Z" fill="white"/>
<path d="M12.4479 18.1253V20.0043H15.1442C14.9214 21.1489 13.915 21.979 12.4479 21.979C10.8113 21.979 9.48413 20.5948 9.48413 18.9582C9.48413 17.3215 10.8113 15.9373 12.4479 15.9373C13.1851 15.9373 13.845 16.1908 14.3661 16.6873V16.6884L15.7929 15.2617C14.9264 14.454 13.7963 13.9586 12.4474 13.9586C9.6862 13.9586 7.44727 16.197 7.44727 18.9587C7.44727 21.7204 9.68564 23.9588 12.4474 23.9588C15.335 23.9588 17.2348 21.9287 17.2348 19.0723C17.2348 18.7449 17.2045 18.4292 17.1558 18.1253H12.4479Z" fill="white"/>
<g opacity="0.2">
<path d="M12.5 20.0043V20.2125H15.1459C15.1654 20.1442 15.1822 20.0748 15.1962 20.0043H12.5Z" fill="#1A237E"/>
<path d="M12.5 23.9582C9.77351 23.9582 7.55809 21.7758 7.50268 19.0622C7.50212 19.0969 7.49988 19.1316 7.49988 19.1663C7.49988 21.928 9.73825 24.1664 12.5 24.1664C15.3876 24.1664 17.2874 22.1363 17.2874 19.2799C17.2874 19.257 17.2846 19.2357 17.2846 19.2128C17.2224 21.9946 15.3401 23.9582 12.5 23.9582ZM14.4182 16.6873C13.8971 16.1913 13.2366 15.9372 12.5 15.9372C10.8633 15.9372 9.53619 17.3214 9.53619 18.9581C9.53619 18.9934 9.5401 19.0275 9.54122 19.0622C9.59664 17.4714 10.898 16.1454 12.5 16.1454C13.2371 16.1454 13.8971 16.399 14.4182 16.8955V16.8966L15.949 15.3657C15.9132 15.3321 15.8735 15.3025 15.8365 15.27L14.4187 16.6884L14.4182 16.6873Z" fill="#1A237E"/>
</g>
<path opacity="0.2" d="M27.8647 15.8332V15.625C27.8647 15.8551 27.6783 16.0414 27.4482 16.0414H19.5314V16.2497H27.4482C27.6783 16.2502 27.8647 16.0638 27.8647 15.8332ZM27.4482 23.9583H19.5314V24.1665H27.4482C27.6783 24.1665 27.8647 23.9801 27.8647 23.7501V23.5419C27.8647 23.7719 27.6783 23.9583 27.4482 23.9583ZM28.6981 19.9999H19.5314V20.2081H28.6981C28.9282 20.2081 29.1146 20.0217 29.1146 19.7917V19.5834C29.1146 19.8135 28.9282 19.9999 28.6981 19.9999Z" fill="#1A237E"/>
<path d="M36.039 7.8816L29.1671 6.03336V0.928597C29.1671 0.41812 28.7462 0 28.2318 0H8.43519C7.9208 0 7.49988 0.41812 7.49988 0.928597V6.01321L0.553597 8.54152C0.105811 8.7044 -0.115844 9.23447 0.061032 9.71976L4.16667 21.0006V29.0624C4.16667 29.578 4.58871 30 5.10423 30H31.5628C32.0783 30 32.5003 29.578 32.5003 29.0624V24.434L36.6329 9.01226C36.7661 8.51354 36.4991 8.00474 36.039 7.8816Z" fill="url(#paint0_radial_73_17)"/>
</g>
<path d="M48.9346 2.72803H47.2109V8.70459H46.4639V2.72803H44.7354V2.03955H48.9346V2.72803ZM50.175 2.03955V4.77393C50.5021 4.35889 50.9465 4.15381 51.508 4.15381C52.05 4.15381 52.4943 4.33936 52.8361 4.71533C53.1633 5.06689 53.2951 5.53076 53.2951 6.30713V8.70459H52.5822V6.39014C52.5822 5.74561 52.4992 5.41357 52.2795 5.17432C52.0744 4.94971 51.7961 4.8374 51.4445 4.8374C51.01 4.8374 50.6828 4.979 50.4533 5.25732C50.2678 5.48193 50.175 5.89209 50.175 6.48779V8.70459H49.4621V2.03955H50.175ZM58.3441 6.79053H54.809C54.8334 6.96143 54.8725 7.12256 54.9359 7.26904C55.058 7.56689 55.2484 7.7915 55.4975 7.95264C55.727 8.104 55.9857 8.17725 56.2787 8.17725C56.8793 8.17725 57.3285 7.91357 57.6264 7.39111L58.2611 7.65967C57.8266 8.4165 57.1234 8.82178 56.2836 8.82178C55.6049 8.82178 55.0531 8.56787 54.6283 8.05518C54.2621 7.61572 54.0766 7.08838 54.0766 6.47314C54.0766 6.05811 54.1693 5.67236 54.3549 5.31592C54.5551 4.94482 54.8236 4.65674 55.1703 4.44678C55.4975 4.25146 55.849 4.15381 56.2299 4.15381C56.85 4.15381 57.3578 4.37842 57.7533 4.83252C58.1488 5.28662 58.349 5.86279 58.349 6.5708C58.349 6.61475 58.349 6.68799 58.3441 6.79053ZM54.809 6.18018H57.6361C57.6117 5.99463 57.5678 5.8335 57.5141 5.70166C57.392 5.40381 57.2113 5.1792 56.977 5.01807C56.7572 4.87158 56.5082 4.79834 56.2348 4.79834C55.8588 4.79834 55.5463 4.92529 55.2875 5.17432C55.0287 5.42334 54.8725 5.76025 54.809 6.18018ZM61.1666 4.15381C61.8258 4.15381 62.3824 4.40771 62.8316 4.91553C63.2174 5.35498 63.4127 5.87744 63.4127 6.48291C63.4127 7.19092 63.1637 7.77686 62.6607 8.23584C62.2359 8.62646 61.7232 8.82178 61.1275 8.82178C60.4391 8.82178 59.8727 8.56787 59.4283 8.06006C59.0426 7.62061 58.8473 7.08838 58.8473 6.46826C58.8473 5.7749 59.0963 5.19873 59.5992 4.73975C60.024 4.34912 60.5465 4.15381 61.1666 4.15381ZM61.1031 4.80322C60.61 4.80322 60.2145 4.99854 59.9068 5.38916C59.6773 5.67725 59.565 6.04346 59.565 6.48779C59.565 7.00537 59.7213 7.42041 60.0289 7.72803C60.3268 8.02588 60.693 8.17725 61.1275 8.17725C61.6451 8.17725 62.0553 7.98193 62.358 7.59131C62.5826 7.29346 62.6949 6.92236 62.6949 6.47314C62.6949 5.97021 62.5436 5.56006 62.2359 5.25244C61.9381 4.95459 61.5621 4.80322 61.1031 4.80322ZM70.7227 2.03955V8.70459H70.0098V8.12354C69.5947 8.5874 69.0723 8.82178 68.4521 8.82178C68.0664 8.82178 67.7051 8.72412 67.3633 8.52393C66.9971 8.31396 66.7139 8.02588 66.5088 7.65479C66.3086 7.29834 66.2109 6.9126 66.2109 6.48779C66.2109 5.77979 66.46 5.19873 66.9629 4.73975C67.3926 4.34912 67.8906 4.15381 68.4521 4.15381C69.0625 4.15381 69.5801 4.38818 70.0098 4.85693V2.03955H70.7227ZM68.457 4.79834C67.9736 4.79834 67.5781 4.99365 67.2705 5.38428C67.041 5.67236 66.9287 6.03857 66.9287 6.48291C66.9287 7.00537 67.085 7.42041 67.3926 7.72803C67.6904 8.02588 68.0518 8.17725 68.4863 8.17725C68.9893 8.17725 69.3896 7.98193 69.6826 7.58643C69.9023 7.29346 70.0098 6.92236 70.0098 6.47803C70.0098 5.97021 69.8633 5.56006 69.5654 5.24756C69.2822 4.94971 68.9111 4.79834 68.457 4.79834ZM73.8186 4.15381C74.4777 4.15381 75.0344 4.40771 75.4836 4.91553C75.8693 5.35498 76.0646 5.87744 76.0646 6.48291C76.0646 7.19092 75.8156 7.77686 75.3127 8.23584C74.8879 8.62646 74.3752 8.82178 73.7795 8.82178C73.091 8.82178 72.5246 8.56787 72.0803 8.06006C71.6945 7.62061 71.4992 7.08838 71.4992 6.46826C71.4992 5.7749 71.7482 5.19873 72.2512 4.73975C72.676 4.34912 73.1984 4.15381 73.8186 4.15381ZM73.7551 4.80322C73.2619 4.80322 72.8664 4.99854 72.5588 5.38916C72.3293 5.67725 72.217 6.04346 72.217 6.48779C72.217 7.00537 72.3732 7.42041 72.6809 7.72803C72.9787 8.02588 73.3449 8.17725 73.7795 8.17725C74.2971 8.17725 74.7072 7.98193 75.01 7.59131C75.2346 7.29346 75.3469 6.92236 75.3469 6.47314C75.3469 5.97021 75.1955 5.56006 74.8879 5.25244C74.59 4.95459 74.2141 4.80322 73.7551 4.80322ZM74.5705 2.29834L75.1418 2.43018C75.0979 2.97705 74.8244 3.27979 74.3605 3.27979C74.1896 3.27979 73.9602 3.21631 73.6818 3.08936C73.4621 2.98682 73.3205 2.93799 73.2473 2.93799C73.091 2.93799 73.0275 3.021 72.9836 3.29932L72.4221 3.1626C72.4807 2.63525 72.7785 2.31299 73.2131 2.31299C73.3693 2.31299 73.6037 2.38623 73.9113 2.52783C74.0969 2.61084 74.2385 2.65479 74.3361 2.65479C74.4973 2.65479 74.551 2.57666 74.5705 2.29834ZM76.8559 4.271H77.5688V8.70459H76.8559V4.271ZM77.2172 2.28857C77.4955 2.28857 77.725 2.51807 77.725 2.79639C77.725 3.08447 77.5004 3.30908 77.2123 3.30908C76.934 3.30908 76.7045 3.07959 76.7045 2.7915C76.7045 2.51807 76.9389 2.28857 77.2172 2.28857ZM84.576 2.72803H82.8523V8.70459H82.1053V2.72803H80.3768V2.03955H84.576V2.72803ZM85.1914 4.271H85.9043V8.70459H85.1914V4.271ZM85.5527 2.28857C85.8311 2.28857 86.0605 2.51807 86.0605 2.79639C86.0605 3.08447 85.8359 3.30908 85.5479 3.30908C85.2695 3.30908 85.04 3.07959 85.04 2.7915C85.04 2.51807 85.2744 2.28857 85.5527 2.28857ZM90.9582 6.79053H87.423C87.4475 6.96143 87.4865 7.12256 87.55 7.26904C87.6721 7.56689 87.8625 7.7915 88.1115 7.95264C88.341 8.104 88.5998 8.17725 88.8928 8.17725C89.4934 8.17725 89.9426 7.91357 90.2404 7.39111L90.8752 7.65967C90.4406 8.4165 89.7375 8.82178 88.8977 8.82178C88.2189 8.82178 87.6672 8.56787 87.2424 8.05518C86.8762 7.61572 86.6906 7.08838 86.6906 6.47314C86.6906 6.05811 86.7834 5.67236 86.9689 5.31592C87.1691 4.94482 87.4377 4.65674 87.7844 4.44678C88.1115 4.25146 88.4631 4.15381 88.8439 4.15381C89.4641 4.15381 89.9719 4.37842 90.3674 4.83252C90.7629 5.28662 90.9631 5.86279 90.9631 6.5708C90.9631 6.61475 90.9631 6.68799 90.9582 6.79053ZM87.423 6.18018H90.2502C90.2258 5.99463 90.1818 5.8335 90.1281 5.70166C90.0061 5.40381 89.8254 5.1792 89.591 5.01807C89.3713 4.87158 89.1223 4.79834 88.8488 4.79834C88.4729 4.79834 88.1604 4.92529 87.9016 5.17432C87.6428 5.42334 87.4865 5.76025 87.423 6.18018ZM90.1135 2.53271L88.8635 1.27295L89.5617 0.896973L90.5627 2.27393L90.1135 2.53271ZM89.7668 3.72412L88.8439 2.85498L87.926 3.72412L87.4133 3.46533L88.5656 2.20557H89.132L90.2795 3.46533L89.7668 3.72412ZM92.4574 4.271V4.76904C92.7846 4.35889 93.2289 4.15381 93.7904 4.15381C94.3324 4.15381 94.7768 4.33936 95.1186 4.71533C95.4457 5.06689 95.5775 5.53564 95.5775 6.30225V8.70459H94.8646V6.39014C94.8646 5.74561 94.7816 5.41357 94.5619 5.17432C94.352 4.94971 94.0736 4.8374 93.727 4.8374C93.2924 4.8374 92.9652 4.979 92.7357 5.25732C92.5502 5.48193 92.4574 5.89209 92.4574 6.48779V8.70459H91.7445V4.271H92.4574ZM100.48 6.00439H99.8602V8.70459H99.1131V2.03955H100.48C101.301 2.03955 101.779 2.18115 102.165 2.53271C102.575 2.90869 102.78 3.40186 102.78 4.01709C102.78 4.63232 102.575 5.13037 102.165 5.50635C101.93 5.72119 101.662 5.86279 101.354 5.92627C101.091 5.97998 100.798 6.00439 100.48 6.00439ZM99.8602 2.72803V5.32568H100.568C101.076 5.32568 101.447 5.21338 101.681 4.98877C101.926 4.75439 102.048 4.43213 102.048 4.01709C102.048 3.60693 101.926 3.28955 101.681 3.06006C101.447 2.84033 101.076 2.72803 100.568 2.72803H99.8602ZM104.094 2.03955V4.77393C104.421 4.35889 104.865 4.15381 105.427 4.15381C105.969 4.15381 106.413 4.33936 106.755 4.71533C107.082 5.06689 107.214 5.53076 107.214 6.30713V8.70459H106.501V6.39014C106.501 5.74561 106.418 5.41357 106.198 5.17432C105.993 4.94971 105.715 4.8374 105.363 4.8374C104.929 4.8374 104.602 4.979 104.372 5.25732C104.187 5.48193 104.094 5.89209 104.094 6.48779V8.70459H103.381V2.03955H104.094ZM110.315 4.15381C110.974 4.15381 111.53 4.40771 111.98 4.91553C112.365 5.35498 112.561 5.87744 112.561 6.48291C112.561 7.19092 112.312 7.77686 111.809 8.23584C111.384 8.62646 110.871 8.82178 110.276 8.82178C109.587 8.82178 109.021 8.56787 108.576 8.06006C108.191 7.62061 107.995 7.08838 107.995 6.46826C107.995 5.7749 108.244 5.19873 108.747 4.73975C109.172 4.34912 109.695 4.15381 110.315 4.15381ZM110.251 4.80322C109.758 4.80322 109.362 4.99854 109.055 5.38916C108.825 5.67725 108.713 6.04346 108.713 6.48779C108.713 7.00537 108.869 7.42041 109.177 7.72803C109.475 8.02588 109.841 8.17725 110.276 8.17725C110.793 8.17725 111.203 7.98193 111.506 7.59131C111.731 7.29346 111.843 6.92236 111.843 6.47314C111.843 5.97021 111.692 5.56006 111.384 5.25244C111.086 4.95459 110.71 4.80322 110.251 4.80322ZM114.055 4.271V4.76904C114.382 4.35889 114.827 4.15381 115.388 4.15381C115.93 4.15381 116.374 4.33936 116.716 4.71533C117.043 5.06689 117.175 5.53564 117.175 6.30225V8.70459H116.462V6.39014C116.462 5.74561 116.379 5.41357 116.16 5.17432C115.95 4.94971 115.671 4.8374 115.325 4.8374C114.89 4.8374 114.563 4.979 114.333 5.25732C114.148 5.48193 114.055 5.89209 114.055 6.48779V8.70459H113.342V4.271H114.055ZM121.716 4.271H122.429V8.7876C122.429 9.43701 122.254 9.96436 121.907 10.3794C121.492 10.8726 120.838 11.1558 120.11 11.1558C119.695 11.1558 119.329 11.0776 119.016 10.9263C118.704 10.7749 118.396 10.521 118.093 10.1743L118.562 9.70557C118.782 9.96924 118.977 10.1499 119.138 10.2524C119.412 10.4233 119.734 10.5112 120.105 10.5112C120.608 10.5112 120.999 10.3599 121.287 10.0522C121.575 9.74463 121.716 9.32471 121.716 8.7876V8.12354C121.301 8.5874 120.779 8.82178 120.159 8.82178C119.773 8.82178 119.412 8.72412 119.07 8.52393C118.704 8.31396 118.421 8.02588 118.215 7.65479C118.015 7.29834 117.918 6.9126 117.918 6.48779C117.918 5.77979 118.167 5.19873 118.67 4.73975C119.099 4.34912 119.597 4.15381 120.159 4.15381C120.769 4.15381 121.287 4.38818 121.716 4.85693V4.271ZM120.164 4.79834C119.68 4.79834 119.285 4.99365 118.977 5.38428C118.748 5.67236 118.635 6.03857 118.635 6.48291C118.635 7.00537 118.792 7.42041 119.099 7.72803C119.397 8.02588 119.758 8.17725 120.193 8.17725C120.696 8.17725 121.096 7.98193 121.394 7.58643C121.614 7.29346 121.721 6.92236 121.721 6.47803C121.721 5.97021 121.57 5.56006 121.272 5.24756C120.989 4.94971 120.618 4.79834 120.164 4.79834ZM127.322 4.91553H126.585V7.37158C126.585 7.86475 126.751 8.10889 127.083 8.10889C127.156 8.10889 127.259 8.09424 127.386 8.06006V8.70459C127.225 8.74854 127.078 8.77295 126.946 8.77295C126.229 8.77295 125.872 8.3042 125.872 7.37158V4.91553H125.374V4.271H125.872V3.22119L126.585 2.93799V4.271H127.322V4.91553ZM128.743 4.271V4.76904C129.017 4.43213 129.403 4.26611 129.896 4.26611C129.979 4.26611 130.057 4.271 130.13 4.27588V4.91553C130.052 4.91064 129.988 4.91064 129.935 4.91064C129.632 4.91064 129.383 4.98389 129.188 5.13037C129.022 5.25732 128.904 5.42334 128.841 5.6333C128.778 5.84326 128.743 6.15576 128.743 6.56592V8.70459H128.03V4.271H128.743ZM134.569 6.79053H131.034C131.058 6.96143 131.097 7.12256 131.161 7.26904C131.283 7.56689 131.473 7.7915 131.722 7.95264C131.952 8.104 132.21 8.17725 132.503 8.17725C133.104 8.17725 133.553 7.91357 133.851 7.39111L134.486 7.65967C134.051 8.4165 133.348 8.82178 132.508 8.82178C131.829 8.82178 131.278 8.56787 130.853 8.05518C130.487 7.61572 130.301 7.08838 130.301 6.47314C130.301 6.05811 130.394 5.67236 130.579 5.31592C130.78 4.94482 131.048 4.65674 131.395 4.44678C131.722 4.25146 132.074 4.15381 132.454 4.15381C133.075 4.15381 133.582 4.37842 133.978 4.83252C134.373 5.28662 134.574 5.86279 134.574 6.5708C134.574 6.61475 134.574 6.68799 134.569 6.79053ZM131.034 6.18018H133.861C133.836 5.99463 133.792 5.8335 133.739 5.70166C133.617 5.40381 133.436 5.1792 133.202 5.01807C132.982 4.87158 132.733 4.79834 132.459 4.79834C132.083 4.79834 131.771 4.92529 131.512 5.17432C131.253 5.42334 131.097 5.76025 131.034 6.18018ZM133.358 3.55811L132.435 2.68896L131.517 3.55811L131.004 3.29932L132.152 2.03955H132.718L133.871 3.29932L133.358 3.55811ZM136.068 4.271V4.76904C136.395 4.35889 136.839 4.15381 137.401 4.15381C137.943 4.15381 138.387 4.33936 138.729 4.71533C139.056 5.06689 139.188 5.53564 139.188 6.30225V8.70459H138.475V6.39014C138.475 5.74561 138.392 5.41357 138.172 5.17432C137.963 4.94971 137.684 4.8374 137.338 4.8374C136.903 4.8374 136.576 4.979 136.346 5.25732C136.161 5.48193 136.068 5.89209 136.068 6.48779V8.70459H135.355V4.271H136.068Z" fill="#888888"/>
<path d="M54.858 19.5043H50.0212V20.9396H53.4515C53.2821 22.9522 51.6076 23.8105 50.027 23.8105C48.0049 23.8105 46.2403 22.2195 46.2403 19.9894C46.2403 17.817 47.9224 16.1439 50.0315 16.1439C51.6587 16.1439 52.6175 17.1812 52.6175 17.1812L53.6225 16.1406C53.6225 16.1406 52.3326 14.7046 49.9801 14.7046C46.9845 14.7045 44.667 17.2328 44.667 19.9638C44.667 22.6397 46.847 25.2491 50.0564 25.2491C52.8792 25.2491 54.9455 23.3153 54.9455 20.4559C54.9455 19.8526 54.8579 19.5039 54.8579 19.5039L54.858 19.5043Z" fill="#4885ED"/>
<path d="M58.8202 18.4648C56.8355 18.4648 55.4132 20.0165 55.4132 21.8261C55.4132 23.6624 56.7928 25.2429 58.8435 25.2429C60.7 25.2429 62.2209 23.824 62.2209 21.8655C62.2209 19.6209 60.4517 18.4648 58.8202 18.4648ZM58.8399 19.796C59.8159 19.796 60.7408 20.5851 60.7408 21.8566C60.7408 23.101 59.8199 23.9126 58.8354 23.9126C57.7538 23.9126 56.9005 23.0463 56.9005 21.8467C56.9005 20.6728 57.7432 19.796 58.8399 19.796Z" fill="#DB3236"/>
<path d="M66.2299 18.4648C64.2452 18.4648 62.8229 20.0165 62.8229 21.8261C62.8229 23.6624 64.2025 25.2429 66.2532 25.2429C68.1096 25.2429 69.6305 23.824 69.6305 21.8655C69.6305 19.6209 67.8614 18.4648 66.2299 18.4648ZM66.2496 19.796C67.2256 19.796 68.1505 20.5851 68.1505 21.8566C68.1505 23.101 67.2295 23.9126 66.2451 23.9126C65.1635 23.9126 64.3102 23.0463 64.3102 21.8467C64.3102 20.6728 65.1529 19.796 66.2496 19.796Z" fill="#F4C20D"/>
<path d="M73.4976 18.4685C71.6759 18.4685 70.244 20.064 70.244 21.8548C70.244 23.8947 71.9041 25.2475 73.4662 25.2475C74.4321 25.2475 74.9457 24.864 75.3249 24.424V25.0922C75.3249 26.2615 74.615 26.9617 73.5434 26.9617C72.5082 26.9617 71.9889 26.1919 71.8085 25.7552L70.506 26.2997C70.9681 27.2767 71.8982 28.2956 73.5542 28.2956C75.3654 28.2956 76.7458 27.1547 76.7458 24.7621V18.6723H75.3249V19.2464C74.888 18.7755 74.2905 18.4686 73.4976 18.4686V18.4685ZM73.6295 19.797C74.5226 19.797 75.4397 20.5596 75.4397 21.862C75.4397 23.1858 74.5245 23.9153 73.6097 23.9153C72.6385 23.9153 71.7349 23.1268 71.7349 21.8746C71.7349 20.5735 72.6734 19.797 73.6295 19.797Z" fill="#4885ED"/>
<path d="M83.0637 18.4603C81.3453 18.4603 79.9025 19.8275 79.9025 21.8449C79.9025 23.9795 81.5107 25.2455 83.2287 25.2455C84.6626 25.2455 85.5427 24.4611 86.0679 23.7582L84.8963 22.9787C84.5923 23.4505 84.0841 23.9116 83.2359 23.9116C82.2831 23.9116 81.8451 23.3899 81.5737 22.8845L86.1179 20.999L85.882 20.4464C85.443 19.3642 84.419 18.4605 83.0638 18.4605L83.0637 18.4603ZM83.1229 19.7637C83.742 19.7637 84.1877 20.0929 84.3769 20.4876L81.3422 21.7561C81.2114 20.7741 82.1417 19.7637 83.1229 19.7637Z" fill="#DB3236"/>
<path d="M77.7361 25.0444H79.2288V15.0551H77.7361V25.0444Z" fill="#3CBA54"/>
<path d="M124.527 19.1725L123.466 19.4726C123.4 19.2959 123.301 19.1241 123.171 18.9574C123.045 18.7873 122.871 18.6472 122.651 18.5372C122.431 18.4271 122.149 18.3721 121.806 18.3721C121.335 18.3721 120.943 18.4805 120.63 18.6972C120.32 18.9107 120.165 19.1825 120.165 19.5127C120.165 19.8061 120.271 20.0379 120.485 20.208C120.698 20.3781 121.032 20.5198 121.485 20.6332L122.626 20.9134C123.313 21.0801 123.825 21.3353 124.162 21.6788C124.499 22.0189 124.667 22.4575 124.667 22.9944C124.667 23.4347 124.54 23.8282 124.287 24.175C124.037 24.5219 123.687 24.7954 123.236 24.9955C122.786 25.1956 122.262 25.2956 121.666 25.2956C120.882 25.2956 120.233 25.1255 119.72 24.7853C119.206 24.4452 118.881 23.9483 118.744 23.2946L119.865 23.0144C119.971 23.428 120.173 23.7381 120.47 23.9449C120.77 24.1517 121.162 24.2551 121.645 24.2551C122.196 24.2551 122.633 24.1383 122.956 23.9049C123.283 23.6681 123.446 23.3846 123.446 23.0545C123.446 22.7877 123.353 22.5642 123.166 22.3841C122.98 22.2007 122.693 22.064 122.306 21.9739L121.025 21.6738C120.321 21.507 119.805 21.2485 119.474 20.8984C119.148 20.5449 118.984 20.103 118.984 19.5727C118.984 19.1391 119.106 18.7556 119.349 18.4221C119.596 18.0886 119.931 17.8268 120.355 17.6367C120.782 17.4466 121.265 17.3516 121.806 17.3516C122.566 17.3516 123.163 17.5183 123.596 17.8518C124.033 18.1853 124.344 18.6255 124.527 19.1725Z" fill="#606368"/>
<path d="M109.943 25.1355L107.601 17.4515H108.842L110.503 23.3345H110.583L112.224 17.4515H113.484L115.105 23.3145H115.185L116.846 17.4515H118.087L115.746 25.1355H114.585L112.904 19.2324H112.784L111.103 25.1355H109.943Z" fill="#606368"/>
<path d="M103.788 25.2956C103.047 25.2956 102.409 25.1322 101.872 24.8054C101.338 24.4752 100.926 24.015 100.636 23.4247C100.349 22.831 100.206 22.1407 100.206 21.3536C100.206 20.5665 100.349 19.8728 100.636 19.2725C100.926 18.6689 101.33 18.1987 101.847 17.8618C102.367 17.5216 102.974 17.3516 103.668 17.3516C104.068 17.3516 104.463 17.4183 104.853 17.5517C105.243 17.6851 105.599 17.9018 105.919 18.202C106.239 18.4988 106.494 18.8923 106.684 19.3826C106.874 19.8728 106.969 20.4765 106.969 21.1935V21.6938H101.046V20.6733H105.769C105.769 20.2397 105.682 19.8528 105.509 19.5127C105.339 19.1725 105.095 18.904 104.778 18.7073C104.465 18.5105 104.095 18.4121 103.668 18.4121C103.197 18.4121 102.791 18.5288 102.447 18.7623C102.107 18.9924 101.845 19.2925 101.662 19.6627C101.478 20.0329 101.387 20.4298 101.387 20.8533V21.5337C101.387 22.114 101.487 22.6059 101.687 23.0094C101.89 23.4096 102.172 23.7148 102.532 23.9249C102.892 24.1317 103.311 24.2351 103.788 24.2351C104.098 24.2351 104.378 24.1917 104.628 24.105C104.882 24.015 105.1 23.8816 105.284 23.7048C105.467 23.5247 105.609 23.3013 105.709 23.0345L106.849 23.3546C106.729 23.7415 106.527 24.0817 106.244 24.3751C105.961 24.6653 105.61 24.8921 105.193 25.0555C104.777 25.2156 104.308 25.2956 103.788 25.2956Z" fill="#606368"/>
<path d="M98.8071 14.8903V25.1355H97.6065L92.0237 17.0914H91.9236V25.1355H90.683V14.8903H91.8836L97.4865 22.9544H97.5865V14.8903H98.8071Z" fill="#606368"/>
<defs>
<radialGradient id="paint0_radial_73_17" cx="0" cy="0" r="1" gradientUnits="userSpaceOnUse" gradientTransform="translate(8.26394 2.43056) scale(35.6581 35.6581)">
<stop stop-color="white" stop-opacity="0.1"/>
<stop offset="1" stop-color="white" stop-opacity="0"/>
</radialGradient>
<clipPath id="clip0_73_17">
<rect width="36.667" height="30" fill="white"/>
</clipPath>
</defs>
</svg>
